<svg version="1.1" id="Layer_1" xmlns="http://www.w3.org/2000/svg" xmlns:xlink="http://www.w3.org/1999/xlink" x="0px" y="0px"
	 viewBox="0 0 12 21" style="enable-background:new 0 0 12 21;" xml:space="preserve">
<style type="text/css">
	.st0{fill:#FFFFFF;}
</style>
<g>
	<path class="st0" d="M4.1,7c0.7,1.2,1.4,2.6,1.8,4c0.2-0.1,0.5-0.3,0.7-0.4c0.2-0.4,0.4-0.5,0.8-0.5C6.6,9,6.1,7.5,5.6,5.7
		c-0.3-0.3-0.7-0.1-1,0.1C4,6.4,3.4,6.5,4.1,7z M6,10.3C5.4,9,5,8.1,4.5,7C5,8.1,5.8,9.5,6,10.3z"/>
	<path class="st0" d="M9.5,14.9c-0.7-1.2-1.2-2.7-1.8-4.5c-0.3-0.3-0.7-0.1-1,0.1C6.3,11,5.9,11,5.8,11.3c-0.1-0.2-0.3-0.3-0.4-0.5
		c-0.1-0.2-0.3-0.3-0.7-0.7C3.6,9.6,1.8,9,0.9,8.8c0.2,0.4,0.8,0.7,1.5,1.1c0.7,0.2,1.4,0.4,2.2,0.6c0,0,0,0,0,0
		c-0.1-0.1-0.3-0.1-0.4-0.2c0,0,0.1,0,0.1,0.1c-0.2-0.1-0.4-0.2-0.6-0.3c-0.7-0.3-1.4-0.5-2-0.8c0.6,0.2,1.2,0.4,2,0.8
		c0.1,0.1,0.3,0.1,0.4,0.2c-0.1-0.1-0.2-0.1-0.3-0.2C3.1,9.8,2.3,9.4,1.5,9.2C2.4,9.5,3.2,9.8,4,10.2c0.3,0.1,0.6,0.3,0.9,0.4
		c-0.6-0.1-1.1-0.2-1.6-0.3c0.1,0,0.2,0.1,0.3,0.1c-1.1-0.1-2.5,0-3.3,0.5c0.8,0.4,3.9,0.3,4.8,0c0,0,0.2-0.1,0.2,0.1
		c0.2,0.1,0.5,0.2,0.6,0.4C6,11.7,6,11.7,6.2,11.8c0.8,1.4,1.4,2.6,1.8,4c0.2-0.1,0.5-0.3,0.7-0.4C9,15,9.1,14.9,9.5,14.9z M4.4,11
		c-0.8,0-1.6,0.2-2.6,0.3c0.4-0.1,0.9-0.2,1.3-0.3c-0.6,0.1-1.3,0.1-1.8,0.1c0.5-0.1,0.9-0.2,1.5-0.2c-0.6,0-1.2,0.1-1.8-0.1
		c1-0.1,2.1,0,3.3-0.1c0.1,0.2,0.2,0.1,0.2,0.1S4.6,10.9,4.4,11z M6.6,11.8C7.2,13,8,14.2,8.2,15.2C7.6,13.9,7.1,12.8,6.6,11.8z"/>
	<path class="st0" d="M10,15.4c-0.4-0.5-0.7-0.3-1.1-0.1c-0.6,0.6-1.2,0.7-0.5,1.2c0.8,1.4,1.4,2.6,1.8,4c0.2-0.1,0.5-0.3,0.7-0.4
		c0.3-0.2,0.4-0.5,0.9-0.3C11,18.5,10.5,16.9,10,15.4z M8.8,16.5c0.6,1.3,1.3,2.5,1.6,3.5C9.8,18.7,9.3,17.6,8.8,16.5z"/>
	<path class="st0" d="M2.3,9.9c0.1,0,0.2,0,0.2,0.1c0,0,0,0-0.1,0C2.4,9.9,2.3,9.9,2.3,9.9z"/>
	<path class="st0" d="M3.7,6.3C3.9,6.2,4.2,6,4.3,5.7c0.3-0.2,0.5-0.3,0.9-0.3C4.5,4.3,4,2.7,3.4,1c-0.3-0.3-0.7-0.1-1,0.1
		C1.8,1.7,1.2,1.6,1.9,2.3C2.7,3.5,3.3,4.9,3.7,6.3z M3.8,5.6l0.1,0.2C3.2,4.3,2.8,3.4,2.3,2.3C2.8,3.4,3.7,4.7,3.8,5.6z"/>
	<polygon class="st0" points="5,11.8 5,11.8 5,11.8 	"/>
	<path class="st0" d="M3.1,10.3c0.1,0,0.1,0,0.2,0c0,0,0,0,0,0C3.2,10.4,3.2,10.4,3.1,10.3z"/>
	<path class="st0" d="M4.6,10.6c-0.9-0.3-1.5-0.4-2.1-0.6c0.3,0.1,0.5,0.3,0.8,0.4c0.6,0.1,1,0.1,1.6,0.3
		C4.8,10.6,4.7,10.6,4.6,10.6z"/>
	<path class="st0" d="M5.3,11.6c0,0-0.1,0.1-0.3,0.2c0.2-0.1,0.2,0.1,0.1,0.2c-0.3,0.2-0.6,0.6-1.1,0.8c0.3-0.2,0.6-0.6,1.1-0.8
		c-0.5,0.3-1.1,0.8-1.6,1.1c0.5-0.3,0.9-0.7,1.4-1c-0.7,0.4-1.3,0.8-1.9,1.3c0.4-0.5,1.1-0.8,1.7-1.2c-0.7,0.4-1.3,0.8-2,1.1
		c0.7-0.4,1.4-1,2.2-1.5c-0.1,0-0.1,0.1-0.2,0.1c-0.9,0.3-2,1.1-2.6,1.7c0.5,0.2,1.5-0.4,2.2-1c-0.5,0.7-1.1,1.8-1.4,2.4
		c0.7-0.2,2.1-2.3,2.1-3.1c0.2-0.1,0.2-0.1,0.3-0.2s0.2-0.1,0.3-0.2C5.7,11.6,5.6,11.7,5.3,11.6z M4.7,13c-0.1,0.2-0.1,0.3-0.2,0.5
		C4.5,13.3,4.6,13.1,4.7,13c0.1-0.2,0.1-0.5,0.3-0.7c-0.3,0.6-0.7,1.3-0.9,1.7c0.2-0.2,0.3-0.5,0.4-0.9c-0.3,0.5-0.6,0.9-0.8,1.4
		c0.2-0.5,0.6-1,0.9-1.5c-0.1,0.2-0.3,0.4-0.4,0.6C4,13.6,3.9,13.8,3.8,14c0.1-0.2,0.2-0.4,0.3-0.5c0.1-0.2,0.3-0.4,0.5-0.7
		c0.1-0.1,0.2-0.3,0.2-0.4c-0.1,0.1-0.1,0.2-0.2,0.3c0.1-0.1,0.2-0.3,0.3-0.4C4.9,12.5,4.8,12.8,4.7,13z M5,12.2l0.2-0.1
		C5.1,12.2,5,12.2,5,12.2z"/>
	<path class="st0" d="M4.6,12.7c0,0.1-0.1,0.2-0.1,0.3c0.1-0.1,0.2-0.3,0.2-0.4C4.7,12.6,4.7,12.7,4.6,12.7z"/>
	<path class="st0" d="M4.7,12.7c0,0-0.1,0.1-0.1,0.1c0,0,0,0.1-0.1,0.1C4.6,12.8,4.6,12.8,4.7,12.7C4.6,12.7,4.7,12.7,4.7,12.7z"/>
</g>
</svg>
