<svg width="127" height="20" viewBox="0 0 127 20" fill="none" xmlns="http://www.w3.org/2000/svg">
<path d="M2.43773 9.70788V15H0.655119V1.48188H5.64085C7.12017 1.48188 8.27763 1.85945 9.11323 2.61458C9.95501 3.36972 10.3759 4.36934 10.3759 5.61345C10.3759 6.92565 9.9643 7.93765 9.14108 8.64946C8.32405 9.35507 7.15112 9.70788 5.62228 9.70788H2.43773ZM2.43773 8.25023H5.64085C6.59405 8.25023 7.32443 8.0274 7.83198 7.58175C8.33952 7.12991 8.5933 6.48 8.5933 5.63202C8.5933 4.82737 8.33952 4.18365 7.83198 3.70086C7.32443 3.21807 6.6281 2.96739 5.74298 2.94882H2.43773V8.25023ZM16.4201 15.1857C15.0583 15.1857 13.9504 14.74 13.0962 13.8487C12.2421 12.9512 11.815 11.7535 11.815 10.2557V9.93999C11.815 8.94346 12.0038 8.05525 12.3813 7.27536C12.7651 6.48928 13.2974 5.87651 13.9783 5.43705C14.6653 4.9914 15.4081 4.76857 16.2065 4.76857C17.5125 4.76857 18.5276 5.19875 19.2518 6.0591C19.976 6.91946 20.3381 8.15119 20.3381 9.7543V10.4692H13.5326C13.5574 11.4595 13.8452 12.2611 14.3961 12.8739C14.9531 13.4804 15.6587 13.7837 16.5129 13.7837C17.1195 13.7837 17.6332 13.6599 18.0541 13.4124C18.475 13.1648 18.8433 12.8367 19.159 12.4282L20.2081 13.2452C19.3663 14.5389 18.1036 15.1857 16.4201 15.1857ZM16.2065 6.1798C15.5133 6.1798 14.9315 6.43358 14.4611 6.94112C13.9906 7.44248 13.6997 8.1481 13.5883 9.05797H18.6205V8.92799C18.571 8.05525 18.3357 7.38059 17.9149 6.90399C17.494 6.4212 16.9245 6.1798 16.2065 6.1798ZM24.6646 2.52174V4.95426H26.5401V6.28193H24.6646V12.5118C24.6646 12.9141 24.7482 13.2174 24.9153 13.4216C25.0824 13.6197 25.3671 13.7188 25.7695 13.7188C25.9675 13.7188 26.2399 13.6816 26.5865 13.6073V15C26.1347 15.1238 25.6952 15.1857 25.2681 15.1857C24.5006 15.1857 23.9219 14.9536 23.5319 14.4894C23.142 14.0251 22.947 13.3659 22.947 12.5118V6.28193H21.118V4.95426H22.947V2.52174H24.6646ZM32.8071 8.97441C31.2782 8.53495 30.1641 7.99645 29.4647 7.35892C28.7714 6.7152 28.4248 5.92293 28.4248 4.98211C28.4248 3.9175 28.8488 3.03857 29.6968 2.34534C30.551 1.64591 31.6589 1.2962 33.0206 1.2962C33.949 1.2962 34.7754 1.47569 35.4995 1.83469C36.2299 2.19369 36.7932 2.68886 37.1893 3.3202C37.5916 3.95154 37.7928 4.64168 37.7928 5.39063H36.0009C36.0009 4.5736 35.7409 3.93297 35.221 3.46875C34.7011 2.99834 33.9676 2.76313 33.0206 2.76313C32.1417 2.76313 31.4546 2.95811 30.9595 3.34805C30.4705 3.73181 30.226 4.26721 30.226 4.95426C30.226 5.50513 30.4581 5.97245 30.9223 6.35621C31.3927 6.73377 32.1881 7.08039 33.3084 7.39606C34.4349 7.71173 35.3139 8.06144 35.9452 8.4452C36.5827 8.82277 37.0531 9.26532 37.3564 9.77287C37.6659 10.2804 37.8207 10.8777 37.8207 11.5648C37.8207 12.6603 37.3936 13.5393 36.5394 14.2015C35.6852 14.8576 34.5433 15.1857 33.1135 15.1857C32.185 15.1857 31.3185 15.0093 30.5138 14.6565C29.7092 14.2975 29.0871 13.8085 28.6476 13.1895C28.2144 12.5706 27.9977 11.8681 27.9977 11.082H29.7896C29.7896 11.899 30.0898 12.5458 30.6902 13.0224C31.2968 13.4928 32.1045 13.728 33.1135 13.728C34.0543 13.728 34.7754 13.5362 35.2767 13.1524C35.7781 12.7686 36.0288 12.2456 36.0288 11.5833C36.0288 10.921 35.7966 10.4104 35.3324 10.0514C34.8682 9.68622 34.0264 9.32722 32.8071 8.97441ZM42.175 2.52174V4.95426H44.0505V6.28193H42.175V12.5118C42.175 12.9141 42.2586 13.2174 42.4257 13.4216C42.5928 13.6197 42.8776 13.7188 43.2799 13.7188C43.478 13.7188 43.7503 13.6816 44.0969 13.6073V15C43.6451 15.1238 43.2056 15.1857 42.7785 15.1857C42.011 15.1857 41.4323 14.9536 41.0423 14.4894C40.6524 14.0251 40.4574 13.3659 40.4574 12.5118V6.28193H38.6284V4.95426H40.4574V2.52174H42.175ZM45.4246 9.88428C45.4246 8.90014 45.6165 8.01502 46.0002 7.22894C46.3902 6.44286 46.9287 5.83628 47.6157 5.40919C48.309 4.98211 49.0981 4.76857 49.9832 4.76857C51.3511 4.76857 52.456 5.24207 53.2978 6.18909C54.1458 7.1361 54.5697 8.39568 54.5697 9.96784V10.0885C54.5697 11.0665 54.381 11.9454 54.0034 12.7253C53.632 13.499 53.0966 14.1025 52.3972 14.5358C51.704 14.9691 50.9055 15.1857 50.0018 15.1857C48.6401 15.1857 47.5353 14.7122 46.6873 13.7652C45.8455 12.8182 45.4246 11.5648 45.4246 10.005V9.88428ZM47.1515 10.0885C47.1515 11.2027 47.4084 12.0971 47.9221 12.7717C48.442 13.4464 49.1353 13.7837 50.0018 13.7837C50.8745 13.7837 51.5678 13.4433 52.0815 12.7625C52.5953 12.0754 52.8521 11.116 52.8521 9.88428C52.8521 8.78253 52.5891 7.89123 52.063 7.21037C51.543 6.52332 50.8498 6.1798 49.9832 6.1798C49.1353 6.1798 48.4513 6.51713 47.9314 7.1918C47.4115 7.86647 47.1515 8.83205 47.1515 10.0885ZM61.5795 6.49547C61.3195 6.45214 61.0379 6.43048 60.7346 6.43048C59.6081 6.43048 58.8437 6.91018 58.4413 7.86957V15H56.7237V4.95426H58.3949L58.4228 6.11481C58.986 5.21732 59.7845 4.76857 60.8182 4.76857C61.1524 4.76857 61.4062 4.8119 61.5795 4.89855V6.49547ZM66.6209 12.4839L68.9606 4.95426H70.7989L66.7602 16.5505C66.135 18.2217 65.1416 19.0573 63.7799 19.0573L63.4549 19.0294L62.8143 18.9087V17.5161L63.2785 17.5532C63.8604 17.5532 64.3122 17.4356 64.6341 17.2004C64.9621 16.9652 65.2314 16.535 65.4418 15.9099L65.8225 14.8886L62.2387 4.95426H64.1141L66.6209 12.4839ZM76.6017 9.88428C76.6017 8.90014 76.7936 8.01502 77.1773 7.22894C77.5673 6.44286 78.1057 5.83628 78.7928 5.40919C79.486 4.98211 80.2752 4.76857 81.1603 4.76857C82.5282 4.76857 83.6331 5.24207 84.4749 6.18909C85.3228 7.1361 85.7468 8.39568 85.7468 9.96784V10.0885C85.7468 11.0665 85.558 11.9454 85.1805 12.7253C84.8091 13.499 84.2737 14.1025 83.5743 14.5358C82.881 14.9691 82.0826 15.1857 81.1789 15.1857C79.8172 15.1857 78.7123 14.7122 77.8644 13.7652C77.0226 12.8182 76.6017 11.5648 76.6017 10.005V9.88428ZM78.3286 10.0885C78.3286 11.2027 78.5854 12.0971 79.0992 12.7717C79.6191 13.4464 80.3123 13.7837 81.1789 13.7837C82.0516 13.7837 82.7449 13.4433 83.2586 12.7625C83.7723 12.0754 84.0292 11.116 84.0292 9.88428C84.0292 8.78253 83.7661 7.89123 83.24 7.21037C82.7201 6.52332 82.0269 6.1798 81.1603 6.1798C80.3123 6.1798 79.6284 6.51713 79.1085 7.1918C78.5885 7.86647 78.3286 8.83205 78.3286 10.0885ZM89.5256 4.95426L89.5813 6.21694C90.3488 5.25136 91.3515 4.76857 92.5894 4.76857C94.7125 4.76857 95.7833 5.96626 95.8019 8.36164V15H94.0842V8.35236C94.078 7.62817 93.9109 7.09277 93.5829 6.74615C93.261 6.39953 92.7566 6.22622 92.0695 6.22622C91.5124 6.22622 91.0235 6.37477 90.6026 6.67188C90.1817 6.96898 89.8536 7.35892 89.6184 7.84171V15H87.9008V4.95426H89.5256ZM100.258 15H98.5408V0.739131H100.258V15ZM104.882 15H103.164V4.95426H104.882V15ZM103.025 2.28963C103.025 2.0111 103.109 1.77589 103.276 1.58401C103.449 1.39214 103.703 1.2962 104.037 1.2962C104.371 1.2962 104.625 1.39214 104.798 1.58401C104.972 1.77589 105.058 2.0111 105.058 2.28963C105.058 2.56816 104.972 2.80027 104.798 2.98596C104.625 3.17165 104.371 3.26449 104.037 3.26449C103.703 3.26449 103.449 3.17165 103.276 2.98596C103.109 2.80027 103.025 2.56816 103.025 2.28963ZM109.264 4.95426L109.32 6.21694C110.087 5.25136 111.09 4.76857 112.328 4.76857C114.451 4.76857 115.522 5.96626 115.541 8.36164V15H113.823V8.35236C113.817 7.62817 113.65 7.09277 113.322 6.74615C113 6.39953 112.495 6.22622 111.808 6.22622C111.251 6.22622 110.762 6.37477 110.341 6.67188C109.92 6.96898 109.592 7.35892 109.357 7.84171V15H107.639V4.95426H109.264ZM122.3 15.1857C120.938 15.1857 119.83 14.74 118.976 13.8487C118.122 12.9512 117.695 11.7535 117.695 10.2557V9.93999C117.695 8.94346 117.883 8.05525 118.261 7.27536C118.645 6.48928 119.177 5.87651 119.858 5.43705C120.545 4.9914 121.288 4.76857 122.086 4.76857C123.392 4.76857 124.407 5.19875 125.131 6.0591C125.856 6.91946 126.218 8.15119 126.218 9.7543V10.4692H119.412C119.437 11.4595 119.725 12.2611 120.276 12.8739C120.833 13.4804 121.538 13.7837 122.392 13.7837C122.999 13.7837 123.513 13.6599 123.934 13.4124C124.355 13.1648 124.723 12.8367 125.038 12.4282L126.088 13.2452C125.246 14.5389 123.983 15.1857 122.3 15.1857ZM122.086 6.1798C121.393 6.1798 120.811 6.43358 120.341 6.94112C119.87 7.44248 119.579 8.1481 119.468 9.05797H124.5V8.92799C124.45 8.05525 124.215 7.38059 123.794 6.90399C123.373 6.4212 122.804 6.1798 122.086 6.1798Z" fill="white"/>
<path d="M2.43773 9.70788V8.51947H1.24932V9.70788H2.43773ZM2.43773 15V16.1884H3.62613V15H2.43773ZM0.655119 15H-0.533287V16.1884H0.655119V15ZM0.655119 1.48188V0.293479H-0.533287V1.48188H0.655119ZM9.11323 2.61458L8.31642 3.4963L8.31966 3.49921L9.11323 2.61458ZM9.14108 8.64946L9.91784 9.54887L9.91837 9.54841L9.14108 8.64946ZM2.43773 8.25023H1.24932V9.43863H2.43773V8.25023ZM7.83198 7.58175L8.61611 8.47478L8.62218 8.46938L7.83198 7.58175ZM5.74298 2.94882L5.76791 1.76068L5.75545 1.76042H5.74298V2.94882ZM2.43773 2.94882V1.76042H1.24932V2.94882H2.43773ZM1.24932 9.70788V15H3.62613V9.70788H1.24932ZM2.43773 13.8116H0.655119V16.1884H2.43773V13.8116ZM1.84352 15V1.48188H-0.533287V15H1.84352ZM0.655119 2.67029H5.64085V0.293479H0.655119V2.67029ZM5.64085 2.67029C6.92017 2.67029 7.76043 2.99384 8.31642 3.49629L9.91003 1.73287C8.79482 0.725058 7.32017 0.293479 5.64085 0.293479V2.67029ZM8.31966 3.49921C8.88334 4.00486 9.1875 4.6691 9.1875 5.61345H11.5643C11.5643 4.06957 11.0267 2.73457 9.90679 1.72996L8.31966 3.49921ZM9.1875 5.61345C9.1875 6.65824 8.87238 7.31074 8.36379 7.7505L9.91837 9.54841C11.0562 8.56456 11.5643 7.19306 11.5643 5.61345H9.1875ZM8.36431 7.75004C7.83793 8.20465 6.98333 8.51947 5.62228 8.51947V10.8963C7.31891 10.8963 8.81017 10.5055 9.91784 9.54887L8.36431 7.75004ZM5.62228 8.51947H2.43773V10.8963H5.62228V8.51947ZM2.43773 9.43863H5.64085V7.06182H2.43773V9.43863ZM5.64085 9.43863C6.7648 9.43863 7.81707 9.17634 8.61609 8.47476L7.04786 6.68873C6.83179 6.87846 6.4233 7.06182 5.64085 7.06182V9.43863ZM8.62218 8.46938C9.44359 7.73812 9.7817 6.7286 9.7817 5.63202H7.40489C7.40489 6.23139 7.23545 6.5217 7.04177 6.69412L8.62218 8.46938ZM9.7817 5.63202C9.7817 4.5548 9.43021 3.58095 8.65104 2.83979L7.01291 4.56193C7.24884 4.78635 7.40489 5.09994 7.40489 5.63202H9.7817ZM8.65104 2.83979C7.87649 2.10302 6.86813 1.78376 5.76791 1.76068L5.71805 4.13697C6.38806 4.15102 6.77236 4.33312 7.01291 4.56193L8.65104 2.83979ZM5.74298 1.76042H2.43773V4.13723H5.74298V1.76042ZM1.24932 2.94882V8.25023H3.62613V2.94882H1.24932ZM13.0962 13.8487L12.2354 14.668L12.2382 14.671L13.0962 13.8487ZM12.3813 7.27536L11.3134 6.754L11.3117 6.75752L12.3813 7.27536ZM13.9783 5.43705L14.6227 6.43553L14.625 6.43407L13.9783 5.43705ZM19.2518 6.0591L18.3426 6.8244L19.2518 6.0591ZM20.3381 10.4692V11.6576H21.5265V10.4692H20.3381ZM13.5326 10.4692V9.2808H12.3141L12.3446 10.4989L13.5326 10.4692ZM14.3961 12.8739L13.5122 13.6684L13.5208 13.6777L14.3961 12.8739ZM19.159 12.4282L19.8892 11.4906L18.948 10.7577L18.2186 11.7016L19.159 12.4282ZM20.2081 13.2452L21.2042 13.8934L21.7996 12.9784L20.9383 12.3076L20.2081 13.2452ZM14.4611 6.94112L15.3277 7.75429L15.3327 7.74896L14.4611 6.94112ZM13.5883 9.05797L12.4087 8.91353L12.2455 10.2464H13.5883V9.05797ZM18.6205 9.05797V10.2464H19.8089V9.05797H18.6205ZM18.6205 8.92799H19.8089V8.8943L19.807 8.86067L18.6205 8.92799ZM17.9149 6.90399L17.0191 7.68495L17.0241 7.69064L17.9149 6.90399ZM16.4201 13.9973C15.3454 13.9973 14.56 13.6585 13.9543 13.0265L12.2382 14.671C13.3408 15.8216 14.7713 16.3741 16.4201 16.3741V13.9973ZM13.9571 13.0294C13.3556 12.3974 13.0034 11.5161 13.0034 10.2557H10.6266C10.6266 11.991 11.1286 13.5051 12.2354 14.668L13.9571 13.0294ZM13.0034 10.2557V9.93999H10.6266V10.2557H13.0034ZM13.0034 9.93999C13.0034 9.0959 13.1625 8.38905 13.451 7.79321L11.3117 6.75752C10.845 7.72145 10.6266 8.79103 10.6266 9.93999H13.0034ZM13.4493 7.79672C13.7458 7.18927 14.1383 6.7482 14.6227 6.43553L13.3338 4.43857C12.4565 5.00482 11.7844 5.7893 11.3134 6.75401L13.4493 7.79672ZM14.625 6.43407C15.1247 6.10994 15.6437 5.95697 16.2065 5.95697V3.58016C15.1724 3.58016 14.2059 3.87285 13.3315 4.44002L14.625 6.43407ZM16.2065 5.95697C17.2248 5.95697 17.8819 6.27699 18.3426 6.8244L20.161 5.29381C19.1734 4.1205 17.8002 3.58016 16.2065 3.58016V5.95697ZM18.3426 6.8244C18.8232 7.39531 19.1497 8.31404 19.1497 9.7543H21.5265C21.5265 7.98835 21.1288 6.44361 20.161 5.29381L18.3426 6.8244ZM19.1497 9.7543V10.4692H21.5265V9.7543H19.1497ZM20.3381 9.2808H13.5326V11.6576H20.3381V9.2808ZM12.3446 10.4989C12.3749 11.7124 12.7356 12.8044 13.5123 13.6684L15.2798 12.0794C14.9548 11.7177 14.7398 11.2066 14.7206 10.4395L12.3446 10.4989ZM13.5208 13.6777C14.3122 14.5395 15.34 14.9721 16.5129 14.9721V12.5953C15.9775 12.5953 15.5941 12.4214 15.2714 12.07L13.5208 13.6777ZM16.5129 14.9721C17.2805 14.9721 18.0138 14.8149 18.6567 14.4367L17.4516 12.388C17.2527 12.505 16.9585 12.5953 16.5129 12.5953V14.9721ZM18.6567 14.4367C19.2155 14.108 19.6964 13.6763 20.0993 13.1549L18.2186 11.7016C17.9902 11.9972 17.7346 12.2216 17.4516 12.388L18.6567 14.4367ZM18.4288 13.3658L19.4779 14.1829L20.9383 12.3076L19.8892 11.4906L18.4288 13.3658ZM19.212 12.5971C18.6122 13.5189 17.745 13.9973 16.4201 13.9973V16.3741C18.4623 16.3741 20.1205 15.5588 21.2042 13.8934L19.212 12.5971ZM16.2065 4.9914C15.1831 4.9914 14.2852 5.3826 13.5894 6.13329L15.3327 7.74896C15.5777 7.48455 15.8435 7.36821 16.2065 7.36821V4.9914ZM13.5944 6.12797C12.9019 6.866 12.5407 7.83586 12.4087 8.91353L14.7679 9.20241C14.8588 8.46034 15.0794 8.01896 15.3277 7.75428L13.5944 6.12797ZM13.5883 10.2464H18.6205V7.86957H13.5883V10.2464ZM19.8089 9.05797V8.92799H17.4321V9.05797H19.8089ZM19.807 8.86067C19.7479 7.82033 19.4588 6.85693 18.8056 6.11733L17.0241 7.69064C17.2127 7.90424 17.394 8.29018 17.434 8.99531L19.807 8.86067ZM18.8106 6.12304C18.1352 5.34831 17.2215 4.9914 16.2065 4.9914V7.36821C16.6275 7.36821 16.8527 7.49409 17.0191 7.68493L18.8106 6.12304ZM24.6646 2.52174H25.853V1.33333H24.6646V2.52174ZM24.6646 4.95426H23.4762V6.14266H24.6646V4.95426ZM26.5401 4.95426H27.7285V3.76585H26.5401V4.95426ZM26.5401 6.28193V7.47034H27.7285V6.28193H26.5401ZM24.6646 6.28193V5.09352H23.4762V6.28193H24.6646ZM24.9153 13.4216L23.9955 14.1742L24.0012 14.1811L24.007 14.188L24.9153 13.4216ZM26.5865 13.6073H27.7749V12.1373L26.3375 12.4453L26.5865 13.6073ZM26.5865 15L26.9005 16.1462L27.7749 15.9066V15H26.5865ZM22.947 6.28193H24.1354V5.09352H22.947V6.28193ZM21.118 6.28193H19.9296V7.47034H21.118V6.28193ZM21.118 4.95426V3.76585H19.9296V4.95426H21.118ZM22.947 4.95426V6.14266H24.1354V4.95426H22.947ZM22.947 2.52174V1.33333H21.7586V2.52174H22.947ZM23.4762 2.52174V4.95426H25.853V2.52174H23.4762ZM24.6646 6.14266H26.5401V3.76585H24.6646V6.14266ZM25.3517 4.95426V6.28193H27.7285V4.95426H25.3517ZM26.5401 5.09352H24.6646V7.47034H26.5401V5.09352ZM23.4762 6.28193V12.5118H25.853V6.28193H23.4762ZM23.4762 12.5118C23.4762 13.0511 23.5841 13.6713 23.9955 14.1742L25.8351 12.6691C25.8746 12.7175 25.8791 12.7474 25.873 12.7253C25.8662 12.7005 25.853 12.6344 25.853 12.5118H23.4762ZM24.007 14.188C24.5005 14.7729 25.2107 14.9072 25.7695 14.9072V12.5303C25.7169 12.5303 25.6811 12.5271 25.6593 12.5239C25.6376 12.5208 25.6342 12.5184 25.6446 12.522C25.6555 12.5258 25.6815 12.5362 25.7156 12.5587C25.7506 12.5816 25.7885 12.6136 25.8236 12.6553L24.007 14.188ZM25.7695 14.9072C26.0922 14.9072 26.4604 14.8498 26.8355 14.7694L26.3375 12.4453C26.0194 12.5135 25.8428 12.5303 25.7695 12.5303V14.9072ZM25.3981 13.6073V15H27.7749V13.6073H25.3981ZM26.2725 13.8538C25.9131 13.9523 25.5794 13.9973 25.2681 13.9973V16.3741C25.811 16.3741 26.3562 16.2953 26.9005 16.1462L26.2725 13.8538ZM25.2681 13.9973C24.7506 13.9973 24.5482 13.8516 24.4419 13.725L22.622 15.2537C23.2955 16.0556 24.2506 16.3741 25.2681 16.3741V13.9973ZM24.4419 13.725C24.2931 13.5478 24.1354 13.1992 24.1354 12.5118H21.7586C21.7586 13.5327 21.9909 14.5025 22.622 15.2537L24.4419 13.725ZM24.1354 12.5118V6.28193H21.7586V12.5118H24.1354ZM22.947 5.09352H21.118V7.47034H22.947V5.09352ZM22.3064 6.28193V4.95426H19.9296V6.28193H22.3064ZM21.118 6.14266H22.947V3.76585H21.118V6.14266ZM24.1354 4.95426V2.52174H21.7586V4.95426H24.1354ZM22.947 3.71015H24.6646V1.33333H22.947V3.71015ZM32.8071 8.97441L33.1374 7.83283L33.1354 7.83226L32.8071 8.97441ZM29.4647 7.35892L28.656 8.22982L28.6641 8.23722L29.4647 7.35892ZM29.6968 2.34534L30.449 3.26541L30.4497 3.26481L29.6968 2.34534ZM35.4995 1.83469L34.9717 2.89946L34.9753 2.90123L35.4995 1.83469ZM37.1893 3.3202L36.1826 3.95184L36.1871 3.95886L37.1893 3.3202ZM37.7928 5.39062V6.57903H38.9812V5.39062H37.7928ZM36.0009 5.39062H34.8125V6.57903H36.0009V5.39062ZM35.221 3.46875L34.4237 4.35002L34.4295 4.35523L35.221 3.46875ZM30.9595 3.34805L31.6932 4.28293L31.6947 4.28171L30.9595 3.34805ZM30.9223 6.3562L30.1651 7.27216L30.1718 7.27763L30.1784 7.283L30.9223 6.3562ZM33.3084 7.39606L32.9861 8.53993L32.9878 8.54039L33.3084 7.39606ZM35.9452 8.4452L35.3279 9.46078L35.3396 9.46774L35.9452 8.4452ZM37.3564 9.77287L36.3362 10.3825L36.3418 10.3916L37.3564 9.77287ZM36.5394 14.2015L37.2633 15.144L37.2676 15.1407L36.5394 14.2015ZM30.5138 14.6565L30.0296 15.7418L30.0366 15.7449L30.5138 14.6565ZM28.6476 13.1895L27.674 13.8711L27.6786 13.8775L28.6476 13.1895ZM27.9977 11.082V9.89357H26.8093V11.082H27.9977ZM29.7896 11.082H30.978V9.89357H29.7896V11.082ZM30.6902 13.0224L29.9513 13.9533L29.9619 13.9615L30.6902 13.0224ZM35.3324 10.0514L34.5976 10.9855L34.6054 10.9915L35.3324 10.0514ZM33.1354 7.83226C31.6777 7.41325 30.7674 6.93835 30.2652 6.48063L28.6641 8.23722C29.5608 9.05455 30.8787 9.65664 32.4788 10.1166L33.1354 7.83226ZM30.2733 6.48807C29.8207 6.06779 29.6132 5.5904 29.6132 4.98211H27.2364C27.2364 6.25546 27.7222 7.36261 28.656 8.22978L30.2733 6.48807ZM29.6132 4.98211C29.6132 4.28583 29.8679 3.74046 30.449 3.26541L28.9446 1.42526C27.8297 2.33668 27.2364 3.54917 27.2364 4.98211H29.6132ZM30.4497 3.26481C31.0454 2.77698 31.8673 2.4846 33.0206 2.4846V0.10779C31.4505 0.10779 30.0565 0.514834 28.9439 1.42586L30.4497 3.26481ZM33.0206 2.4846C33.7932 2.4846 34.4344 2.63309 34.9717 2.89945L36.0274 0.769936C35.1163 0.318298 34.1049 0.10779 33.0206 0.10779V2.4846ZM34.9753 2.90123C35.5265 3.17213 35.9145 3.52447 36.1827 3.95183L38.196 2.68857C37.6718 1.85325 36.9334 1.21525 36.0238 0.768159L34.9753 2.90123ZM36.1871 3.95886C36.4678 4.3993 36.6044 4.86786 36.6044 5.39062H38.9812C38.9812 4.41551 38.7155 3.50378 38.1915 2.68154L36.1871 3.95886ZM37.7928 4.20222H36.0009V6.57903H37.7928V4.20222ZM37.1893 5.39062C37.1893 4.29908 36.8291 3.31135 36.0125 2.58227L34.4295 4.35523C34.6528 4.55459 34.8125 4.84811 34.8125 5.39062H37.1893ZM36.0183 2.5875C35.213 1.85891 34.1576 1.57473 33.0206 1.57473V3.95154C33.7776 3.95154 34.1891 4.13777 34.4237 4.35L36.0183 2.5875ZM33.0206 1.57473C31.9784 1.57473 30.9978 1.80517 30.2242 2.4144L31.6947 4.28171C31.9114 4.11105 32.305 3.95154 33.0206 3.95154V1.57473ZM30.2258 2.41318C29.4169 3.04802 29.0376 3.94623 29.0376 4.95426H31.4144C31.4144 4.58819 31.5241 4.4156 31.6932 4.28293L30.2258 2.41318ZM29.0376 4.95426C29.0376 5.89541 29.4568 6.68658 30.1651 7.27216L31.6795 5.44025C31.4594 5.25831 31.4144 5.11485 31.4144 4.95426H29.0376ZM30.1784 7.283C30.8418 7.81542 31.8284 8.21371 32.9861 8.53993L33.6307 6.25219C32.5478 5.94707 31.9437 5.65212 31.6662 5.42941L30.1784 7.283ZM32.9878 8.54039C34.0631 8.84173 34.8267 9.15606 35.3279 9.46072L36.5625 7.42968C35.801 6.96683 34.8067 6.58174 33.6291 6.25173L32.9878 8.54039ZM35.3396 9.46774C35.8491 9.76946 36.1572 10.0828 36.3363 10.3825L38.3766 9.16327C37.9491 8.44789 37.3164 7.87607 36.5508 7.42266L35.3396 9.46774ZM36.3418 10.3916C36.5209 10.6853 36.6322 11.0614 36.6322 11.5648H39.0091C39.0091 10.694 38.811 9.87556 38.3711 9.15418L36.3418 10.3916ZM36.6322 11.5648C36.6322 12.2988 36.3705 12.8288 35.8112 13.2624L37.2676 15.1407C38.4167 14.2498 39.0091 13.0218 39.0091 11.5648H36.6322ZM35.8155 13.2591C35.2279 13.7104 34.367 13.9973 33.1134 13.9973V16.3741C34.7195 16.3741 36.1426 16.0048 37.2633 15.144L35.8155 13.2591ZM33.1134 13.9973C32.3398 13.9973 31.6368 13.8512 30.991 13.5681L30.0366 15.7449C31.0002 16.1673 32.0302 16.3741 33.1134 16.3741V13.9973ZM30.998 13.5712C30.356 13.2847 29.9144 12.9209 29.6167 12.5015L27.6786 13.8775C28.2599 14.6961 29.0623 15.3102 30.0296 15.7418L30.998 13.5712ZM29.6212 12.508C29.3337 12.0972 29.1861 11.6347 29.1861 11.082H26.8093C26.8093 12.1014 27.0951 13.0439 27.6741 13.871L29.6212 12.508ZM27.9977 12.2704H29.7896V9.89357H27.9977V12.2704ZM28.6012 11.082C28.6012 12.2341 29.0461 13.2346 29.9513 13.9532L31.4291 12.0916C31.1336 11.857 30.978 11.5639 30.978 11.082H28.6012ZM29.9619 13.9615C30.8342 14.638 31.9239 14.9164 33.1134 14.9164V12.5396C32.2852 12.5396 31.7594 12.3477 31.4185 12.0833L29.9619 13.9615ZM33.1134 14.9164C34.1931 14.9164 35.2106 14.6996 35.9991 14.0961L34.5544 12.2087C34.3401 12.3727 33.9154 12.5396 33.1134 12.5396V14.9164ZM35.9991 14.0961C36.8106 13.4749 37.2172 12.5945 37.2172 11.5833H34.8404C34.8404 11.8968 34.7456 12.0624 34.5544 12.2087L35.9991 14.0961ZM37.2172 11.5833C37.2172 10.607 36.8548 9.7264 36.0594 9.11131L34.6054 10.9915C34.7385 11.0944 34.8404 11.2351 34.8404 11.5833H37.2172ZM36.0672 9.11737C35.4092 8.59972 34.3736 8.19053 33.1374 7.83283L32.4768 10.116C33.6792 10.4639 34.3272 10.7727 34.5977 10.9854L36.0672 9.11737ZM42.175 2.52174H43.3635V1.33333H42.175V2.52174ZM42.175 4.95426H40.9866V6.14266H42.175V4.95426ZM44.0505 4.95426H45.2389V3.76585H44.0505V4.95426ZM44.0505 6.28193V7.47034H45.2389V6.28193H44.0505ZM42.175 6.28193V5.09352H40.9866V6.28193H42.175ZM42.4257 13.4216L41.506 14.1742L41.5116 14.1811L41.5174 14.188L42.4257 13.4216ZM44.0969 13.6073H45.2853V12.1373L43.8479 12.4453L44.0969 13.6073ZM44.0969 15L44.4109 16.1462L45.2853 15.9066V15H44.0969ZM40.4574 6.28193H41.6458V5.09352H40.4574V6.28193ZM38.6284 6.28193H37.44V7.47034H38.6284V6.28193ZM38.6284 4.95426V3.76585H37.44V4.95426H38.6284ZM40.4574 4.95426V6.14266H41.6458V4.95426H40.4574ZM40.4574 2.52174V1.33333H39.269V2.52174H40.4574ZM40.9866 2.52174V4.95426H43.3635V2.52174H40.9866ZM42.175 6.14266H44.0505V3.76585H42.175V6.14266ZM42.8621 4.95426V6.28193H45.2389V4.95426H42.8621ZM44.0505 5.09352H42.175V7.47034H44.0505V5.09352ZM40.9866 6.28193V12.5118H43.3635V6.28193H40.9866ZM40.9866 12.5118C40.9866 13.0511 41.0945 13.6713 41.506 14.1742L43.3455 12.6691C43.3851 12.7175 43.3895 12.7474 43.3834 12.7253C43.3766 12.7005 43.3635 12.6344 43.3635 12.5118H40.9866ZM41.5174 14.188C42.0109 14.7729 42.7211 14.9072 43.2799 14.9072V12.5303C43.2273 12.5303 43.1915 12.5271 43.1698 12.5239C43.148 12.5208 43.1447 12.5184 43.155 12.522C43.1659 12.5258 43.1919 12.5362 43.226 12.5587C43.261 12.5816 43.2989 12.6136 43.334 12.6553L41.5174 14.188ZM43.2799 14.9072C43.6027 14.9072 43.9708 14.8498 44.3459 14.7694L43.8479 12.4453C43.5298 12.5135 43.3533 12.5303 43.2799 12.5303V14.9072ZM42.9085 13.6073V15H45.2853V13.6073H42.9085ZM43.7829 13.8538C43.4236 13.9523 43.0898 13.9973 42.7785 13.9973V16.3741C43.3214 16.3741 43.8666 16.2953 44.4109 16.1462L43.7829 13.8538ZM42.7785 13.9973C42.261 13.9973 42.0587 13.8516 41.9523 13.725L40.1324 15.2537C40.8059 16.0556 41.761 16.3741 42.7785 16.3741V13.9973ZM41.9523 13.725C41.8035 13.5478 41.6458 13.1992 41.6458 12.5118H39.269C39.269 13.5327 39.5013 14.5025 40.1324 15.2537L41.9523 13.725ZM41.6458 12.5118V6.28193H39.269V12.5118H41.6458ZM40.4574 5.09352H38.6284V7.47034H40.4574V5.09352ZM39.8168 6.28193V4.95426H37.44V6.28193H39.8168ZM38.6284 6.14266H40.4574V3.76585H38.6284V6.14266ZM41.6458 4.95426V2.52174H39.269V4.95426H41.6458ZM40.4574 3.71015H42.175V1.33333H40.4574V3.71015ZM46.0002 7.22894L44.9356 6.70081L44.9323 6.70758L46.0002 7.22894ZM47.6157 5.40919L46.9924 4.39738L46.9883 4.3999L47.6157 5.40919ZM53.2978 6.18909L52.4095 6.97862L52.4124 6.98185L53.2978 6.18909ZM54.0034 12.7253L52.9337 12.2075L52.932 12.2111L54.0034 12.7253ZM52.3972 14.5358L51.7714 13.5255L51.7673 13.528L52.3972 14.5358ZM46.6873 13.7652L45.799 14.5547L45.8019 14.5579L46.6873 13.7652ZM47.9221 12.7717L46.9766 13.4917L46.9808 13.4972L47.9221 12.7717ZM52.0815 12.7625L53.0302 13.4783L53.0333 13.4741L52.0815 12.7625ZM52.063 7.21037L51.1153 7.92754L51.1226 7.93702L52.063 7.21037ZM46.613 9.88428C46.613 9.05806 46.7731 8.35472 47.0682 7.7503L44.9323 6.70758C44.4599 7.67532 44.2362 8.74222 44.2362 9.88428H46.613ZM47.0648 7.75706C47.3652 7.15149 47.7595 6.71909 48.2431 6.41849L46.9883 4.3999C46.0978 4.95346 45.4151 5.73422 44.9356 6.70082L47.0648 7.75706ZM48.2391 6.421C48.7287 6.11937 49.2984 5.95697 49.9832 5.95697V3.58016C48.8979 3.58016 47.8892 3.84485 46.9924 4.39739L48.2391 6.421ZM49.9832 5.95697C51.0421 5.95697 51.8127 6.3072 52.4096 6.97862L54.186 5.39955C53.0992 4.17695 51.6602 3.58016 49.9832 3.58016V5.95697ZM52.4124 6.98185C53.0219 7.66252 53.3813 8.61601 53.3813 9.96784H55.7582C55.7582 8.17535 55.2696 6.60968 54.1831 5.39632L52.4124 6.98185ZM53.3813 9.96784V10.0885H55.7582V9.96784H53.3813ZM53.3813 10.0885C53.3813 10.9103 53.2236 11.6087 52.9338 12.2075L55.073 13.2432C55.5383 12.2822 55.7582 11.2227 55.7582 10.0885H53.3813ZM52.932 12.2111C52.6543 12.7896 52.2694 13.217 51.7714 13.5255L53.023 15.546C53.9238 14.988 54.6097 14.2085 55.0748 13.2396L52.932 12.2111ZM51.7673 13.528C51.2825 13.831 50.707 13.9973 50.0018 13.9973V16.3741C51.104 16.3741 52.1254 16.1071 53.027 15.5435L51.7673 13.528ZM50.0018 13.9973C48.9509 13.9973 48.1777 13.6481 47.5726 12.9724L45.8019 14.5579C46.8928 15.7762 48.3293 16.3741 50.0018 16.3741V13.9973ZM47.5755 12.9756C46.9691 12.2934 46.613 11.3438 46.613 10.005H44.2362C44.2362 11.7857 44.7219 13.3429 45.799 14.5547L47.5755 12.9756ZM46.613 10.005V9.88428H44.2362V10.005H46.613ZM45.9631 10.0885C45.9631 11.3811 46.2621 12.5534 46.9766 13.4917L48.8676 12.0518C48.5546 11.6407 48.3399 11.0242 48.3399 10.0885H45.9631ZM46.9808 13.4972C47.7302 14.4697 48.7742 14.9721 50.0018 14.9721V12.5953C49.4964 12.5953 49.1538 12.4231 48.8634 12.0463L46.9808 13.4972ZM50.0018 14.9721C51.2372 14.9721 52.2858 14.4648 53.0302 13.4783L51.1329 12.0467C50.8498 12.4219 50.5119 12.5953 50.0018 12.5953V14.9721ZM53.0333 13.4741C53.7547 12.5093 54.0405 11.2645 54.0405 9.88428H51.6637C51.6637 10.9675 51.4358 11.6415 51.1298 12.0508L53.0333 13.4741ZM54.0405 9.88428C54.0405 8.59408 53.7305 7.42483 53.0033 6.48372L51.1226 7.93702C51.4476 8.35763 51.6637 8.97098 51.6637 9.88428H54.0405ZM53.0106 6.49324C52.2645 5.50735 51.2195 4.9914 49.9832 4.9914V7.36821C50.4801 7.36821 50.8215 7.5393 51.1153 7.92751L53.0106 6.49324ZM49.9832 4.9914C48.7647 4.9914 47.7338 5.50129 46.9901 6.46638L48.8727 7.91722C49.1688 7.53298 49.5058 7.36821 49.9832 7.36821V4.9914ZM46.9901 6.46638C46.2497 7.42716 45.9631 8.68929 45.9631 10.0885H48.3399C48.3399 8.97481 48.5733 8.30578 48.8727 7.91722L46.9901 6.46638ZM61.5795 6.49547L61.3841 7.66771L62.7679 7.89834V6.49547H61.5795ZM58.4413 7.86957L57.3454 7.40998L57.2529 7.63047V7.86957H58.4413ZM58.4413 15V16.1884H59.6298V15H58.4413ZM56.7237 15H55.5353V16.1884H56.7237V15ZM56.7237 4.95426V3.76585H55.5353V4.95426H56.7237ZM58.3949 4.95426L59.583 4.92574L59.5552 3.76585H58.3949V4.95426ZM58.4228 6.11481L57.2347 6.14332L57.3295 10.0925L59.4294 6.74654L58.4228 6.11481ZM61.5795 4.89855H62.7679V4.16408L62.111 3.83561L61.5795 4.89855ZM61.7749 5.32324C61.4415 5.26768 61.0938 5.24207 60.7346 5.24207V7.61889C60.982 7.61889 61.1975 7.63661 61.3841 7.66771L61.7749 5.32324ZM60.7346 5.24207C60.0031 5.24207 59.2981 5.3987 58.6847 5.78363C58.0646 6.17278 57.6263 6.74012 57.3454 7.40998L59.5373 8.32915C59.6587 8.03962 59.8038 7.88742 59.9481 7.79687C60.0991 7.7021 60.3396 7.61889 60.7346 7.61889V5.24207ZM57.2529 7.86957V15H59.6298V7.86957H57.2529ZM58.4413 13.8116H56.7237V16.1884H58.4413V13.8116ZM57.9121 15V4.95426H55.5353V15H57.9121ZM56.7237 6.14266H58.3949V3.76585H56.7237V6.14266ZM57.2069 4.98277L57.2347 6.14332L59.6108 6.0863L59.583 4.92574L57.2069 4.98277ZM59.4294 6.74654C59.7819 6.18487 60.2058 5.95697 60.8182 5.95697V3.58016C59.3632 3.58016 58.1902 4.24977 57.4162 5.48309L59.4294 6.74654ZM60.8182 5.95697C60.9369 5.95697 61.0145 5.96489 61.0592 5.97252C61.1062 5.98055 61.0938 5.98438 61.048 5.96149L62.111 3.83561C61.6935 3.62687 61.2213 3.58016 60.8182 3.58016V5.95697ZM60.3911 4.89855V6.49547H62.7679V4.89855H60.3911ZM66.6209 12.4839L65.4934 12.8593L66.6599 16.3633L67.7558 12.8366L66.6209 12.4839ZM68.9606 4.95426V3.76585H68.0854L67.8257 4.60162L68.9606 4.95426ZM70.7989 4.95426L71.9212 5.34513L72.4712 3.76585H70.7989V4.95426ZM66.7602 16.5505L67.8733 16.9669L67.878 16.9542L67.8825 16.9414L66.7602 16.5505ZM63.7799 19.0573L63.6784 20.2414L63.729 20.2457H63.7799V19.0573ZM63.4549 19.0294L63.2349 20.1973L63.2938 20.2084L63.3534 20.2135L63.4549 19.0294ZM62.8143 18.9087H61.6259V19.8942L62.5943 20.0766L62.8143 18.9087ZM62.8143 17.5161L62.9091 16.3315L61.6259 16.2288V17.5161H62.8143ZM63.2785 17.5532L63.1838 18.7378L63.2311 18.7416H63.2785V17.5532ZM64.6341 17.2004L63.9416 16.2346L63.9329 16.2409L64.6341 17.2004ZM65.4418 15.9099L64.3282 15.4948L64.3216 15.5127L64.3155 15.5307L65.4418 15.9099ZM65.8225 14.8886L66.936 15.3036L67.0882 14.8953L66.9404 14.4853L65.8225 14.8886ZM62.2387 4.95426V3.76585H60.5466L61.1208 5.35753L62.2387 4.95426ZM64.1141 4.95426L65.2417 4.57887L64.971 3.76585H64.1141V4.95426ZM67.7558 12.8366L70.0955 5.3069L67.8257 4.60162L65.486 12.1313L67.7558 12.8366ZM68.9606 6.14266H70.7989V3.76585H68.9606V6.14266ZM69.6766 4.56339L65.6379 16.1596L67.8825 16.9414L71.9212 5.34513L69.6766 4.56339ZM65.6471 16.1341C65.3806 16.8466 65.0737 17.2752 64.7813 17.5211C64.5099 17.7494 64.1957 17.8689 63.7799 17.8689V20.2457C64.7258 20.2457 65.5892 19.9474 66.3112 19.3401C67.0123 18.7504 67.5146 17.9256 67.8733 16.9669L65.6471 16.1341ZM63.8814 17.8732L63.5564 17.8454L63.3534 20.2135L63.6784 20.2414L63.8814 17.8732ZM63.675 17.8616L63.0343 17.7409L62.5943 20.0766L63.2349 20.1973L63.675 17.8616ZM64.0027 18.9087V17.5161H61.6259V18.9087H64.0027ZM62.7195 18.7007L63.1838 18.7378L63.3733 16.3686L62.9091 16.3315L62.7195 18.7007ZM63.2785 18.7416C64.0015 18.7416 64.7356 18.5981 65.3352 18.1599L63.9329 16.2409C63.8888 16.2731 63.7192 16.3648 63.2785 16.3648V18.7416ZM65.3265 18.1662C65.9493 17.7197 66.3242 17.0135 66.5681 16.289L64.3155 15.5307C64.1385 16.0565 63.9749 16.2107 63.9416 16.2346L65.3265 18.1662ZM66.5554 16.3249L66.936 15.3036L64.7089 14.4735L64.3282 15.4948L66.5554 16.3249ZM66.9404 14.4853L63.3566 4.55098L61.1208 5.35753L64.7046 15.2919L66.9404 14.4853ZM62.2387 6.14266H64.1141V3.76585H62.2387V6.14266ZM62.9866 5.32965L65.4934 12.8593L67.7485 12.1085L65.2417 4.57887L62.9866 5.32965ZM77.1773 7.22894L76.1127 6.70081L76.1094 6.70758L77.1773 7.22894ZM78.7928 5.40919L78.1694 4.39738L78.1654 4.3999L78.7928 5.40919ZM84.4749 6.18909L83.5866 6.97862L83.5895 6.98185L84.4749 6.18909ZM85.1805 12.7253L84.1108 12.2075L84.1091 12.2111L85.1805 12.7253ZM83.5743 14.5358L82.9484 13.5255L82.9444 13.528L83.5743 14.5358ZM77.8644 13.7652L76.9761 14.5547L76.979 14.5579L77.8644 13.7652ZM79.0992 12.7717L78.1537 13.4917L78.1579 13.4972L79.0992 12.7717ZM83.2586 12.7625L84.2073 13.4783L84.2104 13.4741L83.2586 12.7625ZM83.24 7.21037L82.2923 7.92754L82.2997 7.93702L83.24 7.21037ZM77.7901 9.88428C77.7901 9.05806 77.9502 8.35472 78.2452 7.7503L76.1094 6.70758C75.6369 7.67532 75.4133 8.74222 75.4133 9.88428H77.7901ZM78.2419 7.75706C78.5423 7.15149 78.9366 6.71909 79.4202 6.41849L78.1654 4.3999C77.2749 4.95346 76.5922 5.73422 76.1127 6.70082L78.2419 7.75706ZM79.4161 6.421C79.9057 6.11937 80.4755 5.95697 81.1603 5.95697V3.58016C80.0749 3.58016 79.0663 3.84485 78.1694 4.39739L79.4161 6.421ZM81.1603 5.95697C82.2192 5.95697 82.9898 6.3072 83.5866 6.97862L85.3631 5.39955C84.2763 4.17695 82.8373 3.58016 81.1603 3.58016V5.95697ZM83.5895 6.98185C84.199 7.66252 84.5584 8.61601 84.5584 9.96784H86.9352C86.9352 8.17535 86.4467 6.60968 85.3602 5.39632L83.5895 6.98185ZM84.5584 9.96784V10.0885H86.9352V9.96784H84.5584ZM84.5584 10.0885C84.5584 10.9103 84.4007 11.6087 84.1108 12.2075L86.2501 13.2432C86.7154 12.2822 86.9352 11.2227 86.9352 10.0885H84.5584ZM84.1091 12.2111C83.8314 12.7896 83.4465 13.217 82.9484 13.5255L84.2001 15.546C85.1009 14.988 85.7868 14.2085 86.2519 13.2396L84.1091 12.2111ZM82.9444 13.528C82.4596 13.831 81.8841 13.9973 81.1789 13.9973V16.3741C82.281 16.3741 83.3024 16.1071 84.2041 15.5435L82.9444 13.528ZM81.1789 13.9973C80.128 13.9973 79.3548 13.6481 78.7497 12.9724L76.979 14.5579C78.0699 15.7762 79.5064 16.3741 81.1789 16.3741V13.9973ZM78.7526 12.9756C78.1462 12.2934 77.7901 11.3438 77.7901 10.005H75.4133C75.4133 11.7857 75.899 13.3429 76.9761 14.5547L78.7526 12.9756ZM77.7901 10.005V9.88428H75.4133V10.005H77.7901ZM77.1402 10.0885C77.1402 11.3811 77.4392 12.5534 78.1537 13.4917L80.0447 12.0518C79.7317 11.6407 79.517 11.0242 79.517 10.0885H77.1402ZM78.1579 13.4972C78.9073 14.4697 79.9513 14.9721 81.1789 14.9721V12.5953C80.6734 12.5953 80.3309 12.4231 80.0405 12.0463L78.1579 13.4972ZM81.1789 14.9721C82.4143 14.9721 83.4629 14.4648 84.2073 13.4783L82.31 12.0467C82.0268 12.4219 81.689 12.5953 81.1789 12.5953V14.9721ZM84.2104 13.4741C84.9318 12.5093 85.2176 11.2645 85.2176 9.88428H82.8408C82.8408 10.9675 82.6129 11.6415 82.3068 12.0508L84.2104 13.4741ZM85.2176 9.88428C85.2176 8.59408 84.9076 7.42483 84.1804 6.48372L82.2997 7.93702C82.6247 8.35763 82.8408 8.97098 82.8408 9.88428H85.2176ZM84.1877 6.49324C83.4416 5.50735 82.3966 4.9914 81.1603 4.9914V7.36821C81.6571 7.36821 81.9986 7.5393 82.2924 7.92751L84.1877 6.49324ZM81.1603 4.9914C79.9418 4.9914 78.9109 5.50129 78.1672 6.46638L80.0498 7.91722C80.3459 7.53298 80.6829 7.36821 81.1603 7.36821V4.9914ZM78.1672 6.46638C77.4267 7.42716 77.1402 8.68929 77.1402 10.0885H79.517C79.517 8.97481 79.7503 8.30578 80.0498 7.91722L78.1672 6.46638ZM89.5256 4.95426L90.7128 4.90188L90.6627 3.76585H89.5256V4.95426ZM89.5813 6.21694L88.394 6.26932L88.5341 9.44423L90.5116 6.95642L89.5813 6.21694ZM95.8018 8.36164H96.9903L96.9902 8.35243L95.8018 8.36164ZM95.8018 15V16.1884H96.9903V15H95.8018ZM94.0842 15H92.8958V16.1884H94.0842V15ZM94.0842 8.35236H95.2727L95.2726 8.3422L94.0842 8.35236ZM93.5829 6.74615L92.712 7.55484L92.7197 7.56304L93.5829 6.74615ZM89.6184 7.84171L88.5501 7.32123L88.43 7.56763V7.84171H89.6184ZM89.6184 15V16.1884H90.8068V15H89.6184ZM87.9008 15H86.7124V16.1884H87.9008V15ZM87.9008 4.95426V3.76585H86.7124V4.95426H87.9008ZM88.3383 5.00664L88.394 6.26932L90.7685 6.16456L90.7128 4.90188L88.3383 5.00664ZM90.5116 6.95642C91.0527 6.27567 91.7123 5.95697 92.5894 5.95697V3.58016C90.9907 3.58016 89.6449 4.22704 88.651 5.47746L90.5116 6.95642ZM92.5894 5.95697C93.4274 5.95697 93.8555 6.18673 94.0989 6.45893C94.3661 6.75782 94.6054 7.3242 94.6135 8.37085L96.9902 8.35243C96.9798 7.0037 96.6743 5.77354 95.8708 4.87475C95.0433 3.94926 93.8745 3.58016 92.5894 3.58016V5.95697ZM94.6134 8.36164V15H96.9903V8.36164H94.6134ZM95.8018 13.8116H94.0842V16.1884H95.8018V13.8116ZM95.2726 15V8.35236H92.8958V15H95.2726ZM95.2726 8.3422C95.2651 7.46892 95.0651 6.58344 94.446 5.92926L92.7197 7.56304C92.7567 7.6021 92.891 7.78742 92.8959 8.36251L95.2726 8.3422ZM94.4537 5.9375C93.8214 5.25649 92.9356 5.03782 92.0695 5.03782V7.41463C92.5775 7.41463 92.7007 7.54258 92.712 7.5548L94.4537 5.9375ZM92.0695 5.03782C91.288 5.03782 90.5551 5.2507 89.9172 5.70099L91.2879 7.64277C91.4918 7.49885 91.7369 7.41463 92.0695 7.41463V5.03782ZM89.9172 5.70099C89.3257 6.11854 88.8691 6.66636 88.5501 7.32123L90.6868 8.3622C90.8382 8.05149 91.0377 7.81942 91.2879 7.64277L89.9172 5.70099ZM88.43 7.84171V15H90.8068V7.84171H88.43ZM89.6184 13.8116H87.9008V16.1884H89.6184V13.8116ZM89.0892 15V4.95426H86.7124V15H89.0892ZM87.9008 6.14266H89.5256V3.76585H87.9008V6.14266ZM100.258 15V16.1884H101.447V15H100.258ZM98.5408 15H97.3524V16.1884H98.5408V15ZM98.5408 0.739131V-0.449275H97.3524V0.739131H98.5408ZM100.258 0.739131H101.447V-0.449275H100.258V0.739131ZM100.258 13.8116H98.5408V16.1884H100.258V13.8116ZM99.7292 15V0.739131H97.3524V15H99.7292ZM98.5408 1.92754H100.258V-0.449275H98.5408V1.92754ZM99.07 0.739131V15H101.447V0.739131H99.07ZM104.882 15V16.1884H106.07V15H104.882ZM103.164 15H101.976V16.1884H103.164V15ZM103.164 4.95426V3.76585H101.976V4.95426H103.164ZM104.882 4.95426H106.07V3.76585H104.882V4.95426ZM103.276 1.58401L102.394 0.787441L102.387 0.795402L102.38 0.803491L103.276 1.58401ZM103.276 2.98596L102.392 3.78096L102.4 3.78896L102.407 3.79683L103.276 2.98596ZM104.882 13.8116H103.164V16.1884H104.882V13.8116ZM104.353 15V4.95426H101.976V15H104.353ZM103.164 6.14266H104.882V3.76585H103.164V6.14266ZM103.694 4.95426V15H106.07V4.95426H103.694ZM104.214 2.28963C104.214 2.27032 104.216 2.27812 104.208 2.30216C104.204 2.31355 104.198 2.32572 104.191 2.33762C104.184 2.34947 104.177 2.35851 104.172 2.36454L102.38 0.803491C102.006 1.23283 101.837 1.75344 101.837 2.28963H104.214ZM104.158 2.38059C104.137 2.4039 104.112 2.42545 104.085 2.4436C104.058 2.46161 104.034 2.47302 104.016 2.47977C103.982 2.49282 103.981 2.4846 104.037 2.4846V0.10779C103.471 0.10779 102.854 0.277878 102.394 0.787441L104.158 2.38059ZM104.037 2.4846C104.093 2.4846 104.092 2.49282 104.058 2.47977C104.04 2.47302 104.016 2.46161 103.989 2.4436C103.962 2.42545 103.938 2.4039 103.917 2.38059L105.68 0.787441C105.22 0.277878 104.603 0.10779 104.037 0.10779V2.4846ZM103.917 2.38059C103.912 2.37519 103.905 2.3663 103.897 2.35395C103.889 2.34153 103.883 2.32826 103.878 2.31516C103.868 2.2874 103.87 2.27504 103.87 2.28963H106.247C106.247 1.74152 106.067 1.21542 105.68 0.787441L103.917 2.38059ZM103.87 2.28963C103.87 2.30447 103.868 2.28932 103.88 2.25696C103.893 2.22273 103.912 2.19366 103.93 2.17509L105.667 3.79683C106.067 3.369 106.247 2.83754 106.247 2.28963H103.87ZM103.93 2.17509C103.952 2.15109 103.978 2.12981 104.004 2.1124C104.031 2.09515 104.054 2.0847 104.07 2.0788C104.101 2.06754 104.097 2.07609 104.037 2.07609V4.4529C104.592 4.4529 105.204 4.29297 105.667 3.79683L103.93 2.17509ZM104.037 2.07609C103.978 2.07609 103.974 2.06754 104.004 2.0788C104.021 2.0847 104.044 2.09515 104.07 2.1124C104.097 2.12981 104.122 2.15109 104.145 2.17509L102.407 3.79683C102.87 4.29297 103.483 4.4529 104.037 4.4529V2.07609ZM104.159 2.19096C104.177 2.21101 104.195 2.23947 104.206 2.27008C104.216 2.29866 104.214 2.3092 104.214 2.28963H101.837C101.837 2.8254 102.006 3.35146 102.392 3.78096L104.159 2.19096ZM109.264 4.95426L110.452 4.90188L110.401 3.76585H109.264V4.95426ZM109.32 6.21694L108.133 6.26932L108.273 9.44423L110.25 6.95642L109.32 6.21694ZM115.541 8.36164H116.729L116.729 8.35243L115.541 8.36164ZM115.541 15V16.1884H116.729V15H115.541ZM113.823 15H112.635V16.1884H113.823V15ZM113.823 8.35236H115.011L115.011 8.3422L113.823 8.35236ZM113.322 6.74615L112.451 7.55484L112.458 7.56304L113.322 6.74615ZM109.357 7.84171L108.289 7.32123L108.169 7.56763V7.84171H109.357ZM109.357 15V16.1884H110.546V15H109.357ZM107.639 15H106.451V16.1884H107.639V15ZM107.639 4.95426V3.76585H106.451V4.95426H107.639ZM108.077 5.00664L108.133 6.26932L110.507 6.16456L110.452 4.90188L108.077 5.00664ZM110.25 6.95642C110.791 6.27567 111.451 5.95697 112.328 5.95697V3.58016C110.729 3.58016 109.384 4.22704 108.39 5.47746L110.25 6.95642ZM112.328 5.95697C113.166 5.95697 113.594 6.18673 113.838 6.45893C114.105 6.75782 114.344 7.3242 114.352 8.37085L116.729 8.35243C116.718 7.0037 116.413 5.77354 115.609 4.87475C114.782 3.94926 113.613 3.58016 112.328 3.58016V5.95697ZM114.352 8.36164V15H116.729V8.36164H114.352ZM115.541 13.8116H113.823V16.1884H115.541V13.8116ZM115.011 15V8.35236H112.635V15H115.011ZM115.011 8.3422C115.004 7.46892 114.804 6.58344 114.185 5.92926L112.458 7.56304C112.495 7.6021 112.63 7.78742 112.635 8.36251L115.011 8.3422ZM114.192 5.9375C113.56 5.25649 112.674 5.03782 111.808 5.03782V7.41463C112.316 7.41463 112.439 7.54258 112.451 7.5548L114.192 5.9375ZM111.808 5.03782C111.027 5.03782 110.294 5.2507 109.656 5.70099L111.027 7.64277C111.23 7.49885 111.476 7.41463 111.808 7.41463V5.03782ZM109.656 5.70099C109.064 6.11854 108.608 6.66636 108.289 7.32123L110.425 8.3622C110.577 8.05149 110.776 7.81942 111.027 7.64277L109.656 5.70099ZM108.169 7.84171V15H110.546V7.84171H108.169ZM109.357 13.8116H107.639V16.1884H109.357V13.8116ZM108.828 15V4.95426H106.451V15H108.828ZM107.639 6.14266H109.264V3.76585H107.639V6.14266ZM118.976 13.8487L118.115 14.668L118.118 14.671L118.976 13.8487ZM118.261 7.27536L117.193 6.754L117.191 6.75752L118.261 7.27536ZM119.858 5.43705L120.502 6.43553L120.505 6.43407L119.858 5.43705ZM125.131 6.0591L124.222 6.8244L125.131 6.0591ZM126.218 10.4692V11.6576H127.406V10.4692H126.218ZM119.412 10.4692V9.2808H118.194L118.224 10.4989L119.412 10.4692ZM120.276 12.8739L119.392 13.6684L119.4 13.6777L120.276 12.8739ZM125.038 12.4282L125.769 11.4906L124.828 10.7577L124.098 11.7016L125.038 12.4282ZM126.088 13.2452L127.084 13.8934L127.679 12.9784L126.818 12.3076L126.088 13.2452ZM120.341 6.94112L121.207 7.75429L121.212 7.74896L120.341 6.94112ZM119.468 9.05797L118.288 8.91353L118.125 10.2464H119.468V9.05797ZM124.5 9.05797V10.2464H125.688V9.05797H124.5ZM124.5 8.92799H125.688V8.8943L125.686 8.86067L124.5 8.92799ZM123.794 6.90399L122.899 7.68495L122.904 7.69064L123.794 6.90399ZM122.3 13.9973C121.225 13.9973 120.439 13.6585 119.834 13.0265L118.118 14.671C119.22 15.8216 120.651 16.3741 122.3 16.3741V13.9973ZM119.837 13.0294C119.235 12.3974 118.883 11.5161 118.883 10.2557H116.506C116.506 11.991 117.008 13.5051 118.115 14.668L119.837 13.0294ZM118.883 10.2557V9.93999H116.506V10.2557H118.883ZM118.883 9.93999C118.883 9.0959 119.042 8.38905 119.331 7.79321L117.191 6.75752C116.725 7.72145 116.506 8.79103 116.506 9.93999H118.883ZM119.329 7.79672C119.625 7.18927 120.018 6.7482 120.502 6.43553L119.213 4.43857C118.336 5.00482 117.664 5.7893 117.193 6.75401L119.329 7.79672ZM120.505 6.43407C121.004 6.10994 121.523 5.95697 122.086 5.95697V3.58016C121.052 3.58016 120.085 3.87285 119.211 4.44002L120.505 6.43407ZM122.086 5.95697C123.104 5.95697 123.761 6.27699 124.222 6.8244L126.041 5.29381C125.053 4.1205 123.68 3.58016 122.086 3.58016V5.95697ZM124.222 6.8244C124.703 7.39531 125.029 8.31404 125.029 9.7543H127.406C127.406 7.98835 127.008 6.44361 126.041 5.29381L124.222 6.8244ZM125.029 9.7543V10.4692H127.406V9.7543H125.029ZM126.218 9.2808H119.412V11.6576H126.218V9.2808ZM118.224 10.4989C118.254 11.7124 118.615 12.8044 119.392 13.6684L121.159 12.0794C120.834 11.7177 120.619 11.2066 120.6 10.4395L118.224 10.4989ZM119.4 13.6777C120.192 14.5395 121.22 14.9721 122.392 14.9721V12.5953C121.857 12.5953 121.474 12.4214 121.151 12.07L119.4 13.6777ZM122.392 14.9721C123.16 14.9721 123.893 14.8149 124.536 14.4367L123.331 12.388C123.132 12.505 122.838 12.5953 122.392 12.5953V14.9721ZM124.536 14.4367C125.095 14.108 125.576 13.6763 125.979 13.1549L124.098 11.7016C123.87 11.9972 123.614 12.2216 123.331 12.388L124.536 14.4367ZM124.308 13.3658L125.357 14.1829L126.818 12.3076L125.769 11.4906L124.308 13.3658ZM125.092 12.5971C124.492 13.5189 123.625 13.9973 122.3 13.9973V16.3741C124.342 16.3741 126 15.5588 127.084 13.8934L125.092 12.5971ZM122.086 4.9914C121.063 4.9914 120.165 5.3826 119.469 6.13329L121.212 7.74896C121.457 7.48455 121.723 7.36821 122.086 7.36821V4.9914ZM119.474 6.12797C118.781 6.866 118.42 7.83586 118.288 8.91353L120.647 9.20241C120.738 8.46034 120.959 8.01896 121.207 7.75428L119.474 6.12797ZM119.468 10.2464H124.5V7.86957H119.468V10.2464ZM125.688 9.05797V8.92799H123.312V9.05797H125.688ZM125.686 8.86067C125.627 7.82033 125.338 6.85693 124.685 6.11733L122.904 7.69064C123.092 7.90424 123.273 8.29018 123.313 8.99531L125.686 8.86067ZM124.69 6.12304C124.015 5.34831 123.101 4.9914 122.086 4.9914V7.36821C122.507 7.36821 122.732 7.49409 122.899 7.68493L124.69 6.12304Z" fill="white"/>
</svg>
